<mxfile host="65bd71144e">
    <diagram id="lokVqJMqEOCwoq5SuuqD" name="Page-1">
        <mxGraphModel dx="416" dy="409" grid="0" gridSize="10" guides="1" tooltips="1" connect="1" arrows="1" fold="1" page="1" pageScale="1" pageWidth="850" pageHeight="1100" math="0" shadow="0">
            <root>
                <mxCell id="0"/>
                <mxCell id="1" parent="0"/>
                <mxCell id="4" value="&lt;b&gt;GnL&lt;/b&gt;" style="ellipse;whiteSpace=wrap;html=1;" parent="1" vertex="1">
                    <mxGeometry x="370" y="200" width="98" height="80" as="geometry"/>
                </mxCell>
                <mxCell id="5" value="" style="edgeStyle=none;orthogonalLoop=1;jettySize=auto;html=1;" parent="1" edge="1">
                    <mxGeometry width="100" relative="1" as="geometry">
                        <mxPoint x="370" y="240" as="sourcePoint"/>
                        <mxPoint x="335" y="310" as="targetPoint"/>
                        <Array as="points"/>
                    </mxGeometry>
                </mxCell>
                <mxCell id="6" value="" style="edgeStyle=none;orthogonalLoop=1;jettySize=auto;html=1;" parent="1" edge="1">
                    <mxGeometry width="100" relative="1" as="geometry">
                        <mxPoint x="468.0000000000001" y="240" as="sourcePoint"/>
                        <mxPoint x="503" y="310" as="targetPoint"/>
                        <Array as="points"/>
                    </mxGeometry>
                </mxCell>
                <mxCell id="7" value="&lt;b&gt;&amp;nbsp;&amp;nbsp;src&amp;nbsp;&lt;/b&gt;&lt;span id=&quot;copy-emoji&quot; class=&quot;efont&quot;&gt;📁&lt;br&gt;&lt;/span&gt;" style="whiteSpace=wrap;html=1;" parent="1" vertex="1">
                    <mxGeometry x="300" y="290" width="60" height="40" as="geometry"/>
                </mxCell>
                <mxCell id="8" value="&lt;font style=&quot;font-size: 12px;&quot;&gt;&lt;b&gt;&amp;nbsp; &amp;nbsp;include&amp;nbsp;&lt;/b&gt;&lt;span id=&quot;copy-emoji&quot; class=&quot;efont&quot;&gt;📁&lt;/span&gt;&lt;/font&gt;&lt;b&gt;&lt;br&gt;&lt;/b&gt;" style="whiteSpace=wrap;html=1;" parent="1" vertex="1">
                    <mxGeometry x="480" y="290" width="80" height="40" as="geometry"/>
                </mxCell>
                <mxCell id="9" value="" style="edgeStyle=none;orthogonalLoop=1;jettySize=auto;html=1;" parent="1" edge="1">
                    <mxGeometry width="100" relative="1" as="geometry">
                        <mxPoint x="418.8000000000001" y="200" as="sourcePoint"/>
                        <mxPoint x="418.8" y="160" as="targetPoint"/>
                        <Array as="points"/>
                    </mxGeometry>
                </mxCell>
                <mxCell id="12" value="&lt;b&gt;&amp;nbsp; &amp;nbsp; &amp;nbsp; GnL&amp;nbsp;&amp;nbsp;&lt;/b&gt;&lt;span id=&quot;copy-emoji&quot; class=&quot;efont&quot;&gt;📁&lt;br&gt;&lt;/span&gt;" style="ellipse;whiteSpace=wrap;html=1;" parent="1" vertex="1">
                    <mxGeometry x="370" y="200" width="98" height="80" as="geometry"/>
                </mxCell>
                <mxCell id="14" value="&lt;font color=&quot;#9999ff&quot; style=&quot;font-size: 11px;&quot;&gt;&lt;span style=&quot;font-size: 11px;&quot;&gt;&lt;b&gt;&amp;nbsp; &amp;nbsp;.gitignore&amp;nbsp;&lt;/b&gt;&lt;/span&gt;&lt;span style=&quot;font-size: 11px;&quot;&gt;&lt;b&gt;📄&lt;/b&gt;&lt;/span&gt;&lt;br&gt;&lt;/font&gt;" style="ellipse;shape=cloud;whiteSpace=wrap;html=1;fillColor=#FFE6CC;" parent="1" vertex="1">
                    <mxGeometry x="360" y="120" width="104" height="60" as="geometry"/>
                </mxCell>
                <mxCell id="18" value="" style="edgeStyle=none;orthogonalLoop=1;jettySize=auto;html=1;fontColor=#FF3399;shadow=0;exitX=0.88;exitY=0.25;exitDx=0;exitDy=0;exitPerimeter=0;" parent="1" source="14" edge="1">
                    <mxGeometry width="100" relative="1" as="geometry">
                        <mxPoint x="450" y="130" as="sourcePoint"/>
                        <mxPoint x="510" y="90" as="targetPoint"/>
                        <Array as="points"/>
                    </mxGeometry>
                </mxCell>
                <mxCell id="19" value="&lt;i style=&quot;border-color: var(--border-color);&quot;&gt;&lt;b style=&quot;font-size: 8px;&quot;&gt;&lt;font color=&quot;#9999ff&quot; style=&quot;font-size: 8px;&quot;&gt;&amp;nbsp; &amp;nbsp;Test1, 2, 3,&lt;br style=&quot;border-color: var(--border-color);&quot;&gt;4, 5, 6&amp;nbsp;&lt;/font&gt;&lt;/b&gt;&lt;/i&gt;&lt;font color=&quot;#9999ff&quot;&gt;&lt;span style=&quot;font-size: 8px;&quot;&gt;&lt;b&gt;&lt;i&gt;📄&lt;/i&gt;&lt;/b&gt;&lt;/span&gt;&lt;/font&gt;" style="ellipse;shape=cloud;whiteSpace=wrap;html=1;labelBackgroundColor=none;fontColor=#FF3399;fillColor=#FFE6CC;" parent="1" vertex="1">
                    <mxGeometry x="455" y="70" width="85" height="50" as="geometry"/>
                </mxCell>
                <mxCell id="20" value="" style="edgeStyle=none;orthogonalLoop=1;jettySize=auto;html=1;fontColor=#FF3399;shadow=0;exitX=0.23;exitY=0.251;exitDx=0;exitDy=0;exitPerimeter=0;" parent="1" source="14" edge="1">
                    <mxGeometry width="100" relative="1" as="geometry">
                        <mxPoint x="290.00000000000006" y="135" as="sourcePoint"/>
                        <mxPoint x="346.8" y="90" as="targetPoint"/>
                        <Array as="points"/>
                    </mxGeometry>
                </mxCell>
                <mxCell id="21" value="&lt;b&gt;&lt;i&gt;&lt;font color=&quot;#66b2ff&quot;&gt;main.c&lt;/font&gt;&lt;/i&gt;&lt;/b&gt;" style="ellipse;shape=cloud;whiteSpace=wrap;html=1;labelBackgroundColor=none;fontColor=#FF3399;fillColor=#FFE6CC;" parent="1" vertex="1">
                    <mxGeometry x="320" y="70" width="71.8" height="50" as="geometry"/>
                </mxCell>
                <mxCell id="22" value="" style="edgeStyle=none;orthogonalLoop=1;jettySize=auto;html=1;fontSize=11;" parent="1" edge="1">
                    <mxGeometry width="100" relative="1" as="geometry">
                        <mxPoint x="329.83" y="330" as="sourcePoint"/>
                        <mxPoint x="329.83" y="410" as="targetPoint"/>
                        <Array as="points"/>
                    </mxGeometry>
                </mxCell>
                <mxCell id="23" value="" style="edgeStyle=none;orthogonalLoop=1;jettySize=auto;html=1;fontSize=11;" parent="1" edge="1">
                    <mxGeometry width="100" relative="1" as="geometry">
                        <mxPoint x="519.8599999999999" y="330" as="sourcePoint"/>
                        <mxPoint x="519.8599999999999" y="410" as="targetPoint"/>
                        <Array as="points"/>
                    </mxGeometry>
                </mxCell>
                <mxCell id="24" value="" style="edgeStyle=none;orthogonalLoop=1;jettySize=auto;html=1;fontSize=11;" parent="1" edge="1">
                    <mxGeometry width="100" relative="1" as="geometry">
                        <mxPoint x="330" y="380" as="sourcePoint"/>
                        <mxPoint x="80" y="410" as="targetPoint"/>
                        <Array as="points">
                            <mxPoint x="80" y="380"/>
                        </Array>
                    </mxGeometry>
                </mxCell>
                <mxCell id="25" value="&lt;span id=&quot;copy-emoji&quot; class=&quot;efont&quot;&gt;&lt;b&gt;&lt;font color=&quot;#66b2ff&quot;&gt;&amp;nbsp;get_next_line.c&amp;nbsp;&lt;/font&gt;&lt;/b&gt;&lt;font color=&quot;#66b2ff&quot;&gt;&lt;b&gt;⚙️&lt;/b&gt;&lt;/font&gt;&lt;br&gt;&lt;/span&gt;" style="whiteSpace=wrap;html=1;" parent="1" vertex="1">
                    <mxGeometry x="270" y="400" width="116.88" height="30" as="geometry"/>
                </mxCell>
                <mxCell id="26" value="" style="edgeStyle=none;orthogonalLoop=1;jettySize=auto;html=1;" parent="1" edge="1">
                    <mxGeometry width="100" relative="1" as="geometry">
                        <mxPoint x="329.83" y="430" as="sourcePoint"/>
                        <mxPoint x="329.83" y="480" as="targetPoint"/>
                        <Array as="points"/>
                    </mxGeometry>
                </mxCell>
                <mxCell id="27" value="&lt;b style=&quot;border-color: var(--border-color);&quot;&gt;get_next_line&lt;br style=&quot;border-color: var(--border-color);&quot;&gt;&lt;/b&gt;&lt;font style=&quot;&quot;&gt;&lt;i style=&quot;&quot;&gt;&lt;font style=&quot;font-size: 9px;&quot;&gt;Main function here, read a line from a file descriptor.&lt;/font&gt;&lt;br&gt;&lt;/i&gt;&lt;b style=&quot;font-size: 10px;&quot;&gt;return (line)&lt;/b&gt;&lt;/font&gt;" style="whiteSpace=wrap;html=1;" parent="1" vertex="1">
                    <mxGeometry x="270" y="470" width="120" height="80" as="geometry"/>
                </mxCell>
                <mxCell id="28" value="" style="edgeStyle=none;orthogonalLoop=1;jettySize=auto;html=1;fontSize=9;" edge="1" parent="1">
                    <mxGeometry width="100" relative="1" as="geometry">
                        <mxPoint x="329.76" y="550" as="sourcePoint"/>
                        <mxPoint x="329.76" y="590" as="targetPoint"/>
                        <Array as="points"/>
                    </mxGeometry>
                </mxCell>
                <mxCell id="29" value="&lt;font style=&quot;&quot;&gt;&lt;font style=&quot;&quot;&gt;&lt;b&gt;*read_files&lt;br&gt;&lt;/b&gt;&lt;/font&gt;&lt;font style=&quot;font-size: 9px;&quot;&gt;&lt;i&gt;Read data from the fd.&lt;br&gt;&lt;/i&gt;&lt;/font&gt;&lt;b style=&quot;font-size: 10px;&quot;&gt;return (stack)&lt;/b&gt;&lt;/font&gt;" style="whiteSpace=wrap;html=1;" vertex="1" parent="1">
                    <mxGeometry x="270" y="590" width="120" height="50" as="geometry"/>
                </mxCell>
                <mxCell id="30" value="&lt;font style=&quot;&quot;&gt;&lt;font style=&quot;&quot;&gt;&lt;b&gt;*extract_line&lt;br&gt;&lt;/b&gt;&lt;/font&gt;&lt;font style=&quot;font-size: 9px;&quot;&gt;&lt;i&gt;Extract the first line.&lt;br&gt;&lt;/i&gt;&lt;/font&gt;&lt;b style=&quot;font-size: 10px;&quot;&gt;return (line)&lt;/b&gt;&lt;/font&gt;" style="whiteSpace=wrap;html=1;" vertex="1" parent="1">
                    <mxGeometry x="270" y="680" width="120" height="50" as="geometry"/>
                </mxCell>
                <mxCell id="34" value="" style="edgeStyle=none;orthogonalLoop=1;jettySize=auto;html=1;fontSize=9;" edge="1" parent="1">
                    <mxGeometry width="100" relative="1" as="geometry">
                        <mxPoint x="329.71" y="640" as="sourcePoint"/>
                        <mxPoint x="329.71" y="680" as="targetPoint"/>
                        <Array as="points"/>
                    </mxGeometry>
                </mxCell>
                <mxCell id="35" value="" style="edgeStyle=none;orthogonalLoop=1;jettySize=auto;html=1;fontSize=9;" edge="1" parent="1">
                    <mxGeometry width="100" relative="1" as="geometry">
                        <mxPoint x="329.71000000000004" y="730" as="sourcePoint"/>
                        <mxPoint x="329.71000000000004" y="770" as="targetPoint"/>
                        <Array as="points"/>
                    </mxGeometry>
                </mxCell>
                <mxCell id="36" value="&lt;font style=&quot;&quot;&gt;&lt;font style=&quot;&quot;&gt;&lt;b&gt;*new_line&lt;br&gt;&lt;/b&gt;&lt;/font&gt;&lt;font style=&quot;font-size: 9px;&quot;&gt;&lt;i&gt;Create a new string containing characters in the stack after the first line.&lt;br&gt;&lt;/i&gt;&lt;/font&gt;&lt;b style=&quot;font-size: 10px;&quot;&gt;return (new_line)&lt;/b&gt;&lt;/font&gt;" style="whiteSpace=wrap;html=1;" vertex="1" parent="1">
                    <mxGeometry x="270" y="770" width="120" height="80" as="geometry"/>
                </mxCell>
                <mxCell id="37" value="" style="edgeStyle=none;orthogonalLoop=1;jettySize=auto;html=1;fontSize=8;exitX=1;exitY=0.5;exitDx=0;exitDy=0;entryX=1;entryY=0.75;entryDx=0;entryDy=0;" edge="1" parent="1" source="36" target="27">
                    <mxGeometry width="100" relative="1" as="geometry">
                        <mxPoint x="418.71" y="820" as="sourcePoint"/>
                        <mxPoint x="420" y="540" as="targetPoint"/>
                        <Array as="points">
                            <mxPoint x="419" y="760"/>
                            <mxPoint x="420" y="580"/>
                        </Array>
                    </mxGeometry>
                </mxCell>
                <mxCell id="38" value="&lt;span id=&quot;copy-emoji&quot; class=&quot;efont&quot;&gt;&lt;b&gt;&lt;font color=&quot;#66b2ff&quot;&gt;get_next_line_utils.c&amp;nbsp;&lt;/font&gt;&lt;/b&gt;&lt;font color=&quot;#66b2ff&quot;&gt;&lt;b&gt;🧰&lt;/b&gt;&lt;/font&gt;&lt;br&gt;&lt;/span&gt;" style="whiteSpace=wrap;html=1;" vertex="1" parent="1">
                    <mxGeometry x="10" y="400" width="147.5" height="30" as="geometry"/>
                </mxCell>
                <mxCell id="40" value="" style="edgeStyle=none;orthogonalLoop=1;jettySize=auto;html=1;" edge="1" parent="1">
                    <mxGeometry width="100" relative="1" as="geometry">
                        <mxPoint x="79.99999999999991" y="430" as="sourcePoint"/>
                        <mxPoint x="100" y="490" as="targetPoint"/>
                        <Array as="points">
                            <mxPoint x="80" y="450"/>
                            <mxPoint x="80" y="490"/>
                        </Array>
                    </mxGeometry>
                </mxCell>
                <mxCell id="41" value="&lt;font style=&quot;&quot;&gt;&lt;font style=&quot;&quot;&gt;&lt;b&gt;ft_strlen&lt;br&gt;&lt;/b&gt;&lt;/font&gt;&lt;font size=&quot;1&quot;&gt;&lt;i&gt;Calculates the lenght of the string str.&lt;/i&gt;&lt;/font&gt;&lt;br&gt;&lt;/font&gt;" style="whiteSpace=wrap;html=1;" vertex="1" parent="1">
                    <mxGeometry x="100" y="470" width="110" height="50" as="geometry"/>
                </mxCell>
                <mxCell id="43" value="" style="edgeStyle=none;orthogonalLoop=1;jettySize=auto;html=1;entryX=0.002;entryY=0.328;entryDx=0;entryDy=0;entryPerimeter=0;" edge="1" parent="1" target="44">
                    <mxGeometry width="100" relative="1" as="geometry">
                        <mxPoint x="80" y="480" as="sourcePoint"/>
                        <mxPoint x="90" y="570" as="targetPoint"/>
                        <Array as="points">
                            <mxPoint x="80" y="550"/>
                        </Array>
                    </mxGeometry>
                </mxCell>
                <mxCell id="44" value="&lt;font style=&quot;&quot;&gt;&lt;font style=&quot;&quot;&gt;&lt;b&gt;ft_strchr&lt;br&gt;&lt;/b&gt;&lt;/font&gt;&lt;font size=&quot;1&quot;&gt;&lt;i&gt;Locates the first occurence of the character.&lt;/i&gt;&lt;/font&gt;&lt;br&gt;&lt;/font&gt;" style="whiteSpace=wrap;html=1;" vertex="1" parent="1">
                    <mxGeometry x="100" y="530" width="110" height="60" as="geometry"/>
                </mxCell>
                <mxCell id="45" value="" style="edgeStyle=none;orthogonalLoop=1;jettySize=auto;html=1;fontSize=8;entryX=0;entryY=0.333;entryDx=0;entryDy=0;entryPerimeter=0;" edge="1" parent="1" target="46">
                    <mxGeometry width="100" relative="1" as="geometry">
                        <mxPoint x="80" y="540" as="sourcePoint"/>
                        <mxPoint x="80" y="620" as="targetPoint"/>
                        <Array as="points">
                            <mxPoint x="80" y="620"/>
                            <mxPoint x="90" y="620"/>
                        </Array>
                    </mxGeometry>
                </mxCell>
                <mxCell id="46" value="&lt;font style=&quot;&quot;&gt;&lt;font style=&quot;&quot;&gt;&lt;b&gt;ft_strjoin&lt;br&gt;&lt;/b&gt;&lt;/font&gt;&lt;font size=&quot;1&quot;&gt;&lt;i&gt;Concatenates two strings into a newly allocated string.&lt;/i&gt;&lt;/font&gt;&lt;br&gt;&lt;/font&gt;" style="whiteSpace=wrap;html=1;" vertex="1" parent="1">
                    <mxGeometry x="100" y="600" width="110" height="60" as="geometry"/>
                </mxCell>
                <mxCell id="47" value="&lt;font style=&quot;&quot;&gt;&lt;b&gt;free_strs&lt;br&gt;&lt;/b&gt;&lt;i style=&quot;font-size: x-small;&quot;&gt;Frees the memory pointed by two strings.&lt;/i&gt;&lt;br&gt;&lt;/font&gt;" style="whiteSpace=wrap;html=1;" vertex="1" parent="1">
                    <mxGeometry x="100" y="670" width="110" height="50" as="geometry"/>
                </mxCell>
                <mxCell id="48" value="" style="edgeStyle=none;orthogonalLoop=1;jettySize=auto;html=1;fontSize=8;entryX=0;entryY=0.5;entryDx=0;entryDy=0;" edge="1" parent="1" target="47">
                    <mxGeometry width="100" relative="1" as="geometry">
                        <mxPoint x="80" y="610" as="sourcePoint"/>
                        <mxPoint x="80" y="700" as="targetPoint"/>
                        <Array as="points">
                            <mxPoint x="80" y="650"/>
                            <mxPoint x="80" y="695"/>
                        </Array>
                    </mxGeometry>
                </mxCell>
                <mxCell id="49" value="&lt;span id=&quot;copy-emoji&quot; class=&quot;efont&quot;&gt;&lt;font color=&quot;#b266ff&quot;&gt;&lt;b style=&quot;&quot;&gt;&amp;nbsp;get_next_line.h&amp;nbsp;&lt;/b&gt;&lt;b style=&quot;&quot;&gt;📖&lt;/b&gt;&lt;/font&gt;&lt;br&gt;&lt;/span&gt;" style="whiteSpace=wrap;html=1;" vertex="1" parent="1">
                    <mxGeometry x="461.56" y="400" width="116.88" height="30" as="geometry"/>
                </mxCell>
                <mxCell id="50" value="" style="edgeStyle=none;orthogonalLoop=1;jettySize=auto;html=1;" edge="1" parent="1">
                    <mxGeometry width="100" relative="1" as="geometry">
                        <mxPoint x="519.7099999999999" y="430" as="sourcePoint"/>
                        <mxPoint x="519.7099999999999" y="480" as="targetPoint"/>
                        <Array as="points"/>
                    </mxGeometry>
                </mxCell>
                <mxCell id="51" value="&lt;font color=&quot;#000000&quot;&gt;Contains my macros&amp;nbsp;&lt;b&gt;BUFFER_SIZE&lt;/b&gt;, &lt;b&gt;FD_MAX&lt;/b&gt; (for bonus part), all necessary headers and my functions from get_next_line_&lt;b&gt;utils&lt;/b&gt;.c to get used in get_next_line.c&lt;br&gt;&lt;/font&gt;" style="whiteSpace=wrap;html=1;fontSize=8;fontColor=#B266FF;" vertex="1" parent="1">
                    <mxGeometry x="460" y="470" width="120" height="70" as="geometry"/>
                </mxCell>
            </root>
        </mxGraphModel>
    </diagram>
</mxfile>